<svg width="25" height="25" fill="none" xmlns="http://www.w3.org/2000/svg">
  <path d="M22.681 7.748a2.625 2.625 0 0 0-1.852-1.853c-1.635-.442-8.205-.442-8.205-.442s-6.57 0-8.205.442a2.625 2.625 0 0 0-1.853 1.853 27.097 27.097 0 0 0-.442 5.055 27.122 27.122 0 0 0 .442 5.055A2.625 2.625 0 0 0 4.42 19.71c1.635.443 8.205.443 8.205.443s6.57 0 8.205-.443a2.625 2.625 0 0 0 1.852-1.852 27.09 27.09 0 0 0 .443-5.055 27.091 27.091 0 0 0-.443-5.055Zm-12.157 8.205v-6.3l5.452 3.15-5.452 3.15Z" fill="#fff"/>
</svg>
